<svg width="75" height="41" viewBox="0 0 75 41" fill="none" xmlns="http://www.w3.org/2000/svg">
<path d="M75 39.4801C73.9084 39.8596 72.7035 39.8588 71.6126 39.4778C70.5217 39.0968 69.6201 38.362 69.0781 37.412L58.2969 23.708L56.7344 21.7921L44.225 37.4292C43.7156 38.3394 42.863 39.0478 41.8266 39.4221C40.7902 39.7963 39.641 39.8109 38.5938 39.4629L54.7125 19.5861L39.7188 1.63096C40.7969 1.27385 41.9759 1.26912 43.0574 1.61755C44.1389 1.96599 45.0567 2.64631 45.6563 3.54396L56.8313 17.4175L68.0688 3.6014C68.5821 2.70749 69.4349 2.01812 70.4651 1.66436C71.4953 1.3106 72.631 1.31712 73.6562 1.68266L67.8375 8.78028L59.9563 18.2103C59.7374 18.3897 59.5623 18.6097 59.4423 18.8557C59.3224 19.1017 59.2604 19.3682 59.2604 19.6378C59.2604 19.9074 59.3224 20.1739 59.4423 20.42C59.5623 20.666 59.7374 20.8859 59.9563 21.0654L74.9688 39.483L75 39.4801ZM0.00628749 19.3391L1.31879 13.3789C4.92504 1.59362 19.625 -3.30951 29.7375 3.9863C35.6594 8.26325 37.1375 14.3182 36.8469 21.1429H3.48754C2.94691 33.3304 12.5157 40.6894 24.75 36.9295C26.7333 36.2733 28.5086 35.1751 29.9168 33.7334C31.3249 32.2917 32.322 30.5514 32.8188 28.6685C33.4656 26.7555 34.5313 26.4281 36.4875 26.9796C36.1615 29.313 35.2641 31.5482 33.8627 33.5168C32.4614 35.4855 30.5926 37.1365 28.3969 38.3455C24.7701 40.169 20.6089 40.8917 16.5082 40.4104C12.4076 39.9291 8.57753 38.2683 5.56566 35.6656C2.58763 32.5847 0.787775 28.6929 0.440662 24.584C0.440662 23.909 0.190662 23.2771 0.0219125 22.671C0.00670008 21.5614 -0.000591741 20.4517 3.74884e-05 19.342L0.00628749 19.3391ZM3.52816 18.5176H33.6969C33.5094 9.6822 27.4438 3.4147 19.3532 3.35725C10.3469 3.24236 3.90316 9.37199 3.50629 18.4774L3.52816 18.5176Z" fill="white"/>
</svg>
