<svg width="75" height="90" viewBox="0 0 75 90" fill="none" xmlns="http://www.w3.org/2000/svg">
<path d="M74.864 17.6425L68.0562 82.5522L37.4544 89.7727L6.93704 82.5622L0.13623 17.6425H74.864Z" fill="#E44D26"/>
<path d="M37.5 84.2535L62.2278 78.4189L68.0452 22.9505H37.5V84.2535Z" fill="#F16529"/>
<path d="M24.2659 38.875H37.5002V30.9129H14.042L14.2658 33.049L16.5652 54.9905H37.5002V47.0284H25.121L24.2659 38.875ZM26.3744 58.9717H16.9832L18.2938 71.4735L37.4571 76.0009L37.5002 75.9909V67.7069L37.4592 67.7162L27.0405 65.3218L26.3744 58.9717Z" fill="#EBEBEB"/>
<path d="M7.08887 0H11.843V3.99765H16.1921V0H20.9465V12.1059H16.1924V8.05213H11.8433V12.1059H7.08916V0H7.08887ZM27.1981 4.0146H23.0134V0H36.1405V4.0146H31.9531V12.1059H27.199V4.0146H27.1987H27.1981ZM38.2237 0H43.1809L46.2302 4.25368L49.2766 0H54.2358V12.1059H49.501V6.10554L46.2302 10.4098H46.1482L42.8754 6.10554V12.1059H38.2237V0ZM56.6018 0H61.3574V8.10449H68.0431V12.1059H56.6015V0H56.6018Z" fill="white"/>
<path d="M37.4676 54.9905H48.9874L47.9012 65.3168L37.4673 67.7137V75.9972L56.6459 71.4735L56.7865 70.1282L58.9852 49.1664L59.2134 47.0284H37.4676V54.9905ZM37.4676 38.8556V38.875H60.0646L60.2521 37.0855L60.6786 33.049L60.9021 30.9129H37.4676V38.8558V38.8556Z" fill="white"/>
</svg>
