<svg width="75" height="90" viewBox="0 0 75 90" fill="none" xmlns="http://www.w3.org/2000/svg">
<path d="M37.4544 89.7726L6.93704 82.5621L0.13623 17.6425H74.864L68.0562 82.5522L37.4544 89.7726Z" fill="#264DE4"/>
<path d="M62.2278 78.4189L68.0452 22.9504H37.5V84.2534L62.2278 78.4189Z" fill="#2965F1"/>
<path d="M15.7269 47.0283L16.5652 54.9905H37.5002V47.0283H15.7269ZM14.042 30.9128L14.8923 38.875H37.5002V30.9128H14.042ZM37.5002 67.7069L37.4592 67.7161L27.0405 65.3218L26.3744 58.9716H16.9832L18.2938 71.4734L37.4571 76.0008L37.5002 75.9909V67.7069Z" fill="#EBEBEB"/>
<path d="M17.7231 0H29.0534V4.0328H22.4615V8.06559H29.054V12.0981H17.7231V0ZM31.3198 0H42.6504V3.50676H36.0581V4.20806H42.6504V12.2737H31.3201V8.59114H37.9123V7.88983H31.3195V0H31.3198ZM44.9167 0H56.2473V3.50676H49.6551V4.20806H56.2473V12.2737H44.9167V8.59114H51.509V7.88983H44.917V0H44.9167Z" fill="white"/>
<path d="M59.2134 47.0283L60.9021 30.9128H37.4676V38.875H50.6497L49.7985 47.0283H37.4676V54.9905H48.9874L47.9012 65.3168L37.4673 67.7136V75.9971L56.6459 71.4734L56.7865 70.1282L58.9852 49.1664L59.2134 47.0283Z" fill="white"/>
</svg>
