<svg width="75" height="90" viewBox="0 0 75 90" fill="none" xmlns="http://www.w3.org/2000/svg">
<path d="M4.6875 5.625H70.3125V84.375H4.6875V5.625Z" fill="#F5DE19"/>
<path d="M48.7713 67.1485C49.3304 68.5114 50.1992 69.657 51.2773 70.4532C52.3555 71.2494 53.5992 71.6637 54.865 71.6485C57.4197 71.6485 59.0533 70.1157 59.0533 67.9922C59.0533 65.461 57.3752 64.5554 54.5627 63.0788L53.0205 62.2857C48.5674 60.0104 45.6143 57.1613 45.6143 51.1369C45.6143 45.5879 49.1299 41.3607 54.6447 41.3607C56.43 41.206 58.2137 41.6855 59.7733 42.7393C61.333 43.7931 62.5995 45.3746 63.415 47.2866L58.5939 50.9851C58.2799 50.037 57.7332 49.2259 57.0262 48.6593C56.3192 48.0928 55.4854 47.7974 54.6354 47.8126C54.2645 47.768 53.8899 47.8167 53.5356 47.9554C53.1813 48.0941 52.8549 48.3199 52.5773 48.6184C52.2997 48.9169 52.0769 49.2814 51.9232 49.6889C51.7695 50.0964 51.6883 50.5378 51.6846 50.9851C51.6846 53.2041 52.8307 54.1041 55.4768 55.4851L57.0189 56.2782C62.2596 58.9754 65.2221 61.7232 65.2221 67.9022C65.2221 74.5651 60.8604 78.2157 55.0033 78.2157C52.7212 78.3902 50.4458 77.7684 48.4516 76.4255C46.4575 75.0825 44.8298 73.0757 43.765 70.6472L48.7713 67.1485ZM26.9861 67.7897C27.9541 69.8513 28.8354 71.5951 30.9541 71.5951C32.9791 71.5951 34.2588 70.6444 34.2588 66.946V41.7826H40.4252V67.0444C40.4252 74.7057 36.6752 78.1932 31.2166 78.1932C29.2871 78.3197 27.3709 77.7427 25.7198 76.538C24.0687 75.3332 22.76 73.5571 21.9658 71.4432L26.9861 67.7897Z" fill="black"/>
</svg>
