<svg width="75" height="90" viewBox="0 0 75 90" fill="none" xmlns="http://www.w3.org/2000/svg">
<g clip-path="url(#clip0_19_298)">
<g filter="url(#filter0_d_19_298)">
<ellipse cx="38" cy="45" rx="25" ry="29" fill="white"/>
</g>
<path d="M15.5794 0C11.3004 0 8.13393 5.64044 8.27572 11.7574C8.41194 17.6338 8.235 25.2454 6.96274 31.4524C5.68667 37.6774 3.52824 41.6206 0.00292969 42.1271V47.8429C3.52824 48.3494 5.68667 52.2927 6.96274 58.5181C8.235 64.725 8.41194 72.3357 8.27572 78.2126C8.13393 84.3287 11.3004 89.97 15.58 89.97H59.4261C63.7055 89.97 66.871 84.3296 66.7293 78.2126C66.5933 72.3362 66.77 64.725 68.0422 58.5181C69.3192 52.2931 71.4718 48.349 74.9971 47.8429V42.1271C71.4718 41.6206 69.3192 37.6774 68.0425 31.4524C66.77 25.2463 66.5933 17.6343 66.7293 11.7574C66.871 5.64132 63.7055 0 59.4261 0H15.5789H15.5794ZM50.8466 55.3822C50.8466 63.8051 46.6751 68.9131 39.7522 68.9131H27.967C27.6299 68.913 27.3067 68.7112 27.0683 68.3523C26.83 67.9933 26.6962 67.5064 26.6962 66.9988V22.9712C26.6961 22.7198 26.729 22.4708 26.7928 22.2385C26.8567 22.0062 26.9503 21.7951 27.0683 21.6173C27.1864 21.4395 27.3265 21.2985 27.4808 21.2022C27.635 21.106 27.8003 21.0565 27.9672 21.0565H39.6848C45.4573 21.0565 49.2457 25.766 49.2457 32.996C49.2457 38.0709 46.697 42.6141 43.4503 43.4096V43.6747C47.8706 44.4049 50.8466 49.0147 50.8466 55.3822ZM38.4667 27.1249H31.7474V41.419H37.4071C41.782 41.419 44.1947 38.7657 44.1947 34.0231C44.1947 29.5791 42.12 27.1249 38.467 27.1249H38.4667ZM31.7474 47.0907V62.8429H38.7143C43.269 62.8429 45.6823 60.0904 45.6823 54.9172C45.6823 49.7431 43.2019 47.0899 38.4213 47.0899H31.7474V47.0907Z" fill="#7E13F8"/>
</g>
<defs>
<filter id="filter0_d_19_298" x="13" y="16" width="55" height="66" filterUnits="userSpaceOnUse" color-interpolation-filters="sRGB">
<feFlood flood-opacity="0" result="BackgroundImageFix"/>
<feColorMatrix in="SourceAlpha" type="matrix" values="0 0 0 0 0 0 0 0 0 0 0 0 0 0 0 0 0 0 127 0" result="hardAlpha"/>
<feOffset dx="3" dy="6"/>
<feGaussianBlur stdDeviation="1"/>
<feComposite in2="hardAlpha" operator="out"/>
<feColorMatrix type="matrix" values="0 0 0 0 0 0 0 0 0 0 0 0 0 0 0 0 0 0 0.3 0"/>
<feBlend mode="normal" in2="BackgroundImageFix" result="effect1_dropShadow_19_298"/>
<feBlend mode="normal" in="SourceGraphic" in2="effect1_dropShadow_19_298" result="shape"/>
</filter>
<clipPath id="clip0_19_298">
<rect width="75" height="90" fill="white"/>
</clipPath>
</defs>
</svg>
