<svg width="75" height="90" viewBox="0 0 75 90" fill="none" xmlns="http://www.w3.org/2000/svg">
<g clip-path="url(#clip0_19_304)">
<path d="M72 11H41L34 28H-5V96H79V11H72ZM72 28H44.6667L48.3333 19.5H72V28Z" fill="#458248"/>
<path d="M62.7539 87.1875L61.4344 86.6616C61.4344 86.6616 61.6031 78.6431 59.1938 78.0835C57.6047 75.8728 59.4281 -16.2928 65.2102 77.7685C64.1127 78.4358 63.2728 79.5867 62.8664 80.9803C62.6486 83.039 62.6109 85.1194 62.7539 87.1875Z" fill="url(#paint0_linear_19_304)"/>
<path d="M63.4665 79.4447C66.9807 76.2689 69.6717 71.9615 71.2267 67.0232C72.7817 62.0849 73.1368 56.7184 72.2509 51.5475C69.6728 37.8675 63.5532 33.3703 62.8946 31.6547C62.3254 30.5857 61.8398 29.4559 61.4438 28.2797L61.9313 66.3947C61.9313 66.3947 60.9212 78.0412 63.4665 79.4447Z" fill="url(#paint1_linear_19_304)"/>
<path d="M60.7619 79.9509C60.7619 79.9509 50.0018 71.1562 50.6252 55.6003C50.6833 50.9105 51.5794 46.2903 53.2529 42.0516C54.9264 37.813 57.3384 34.0546 60.326 31.0303C60.6743 30.6734 60.951 30.2268 61.1357 29.7238C61.3203 29.2208 61.408 28.6743 61.3924 28.125C62.0627 29.8547 61.9525 53.9494 62.0229 56.7675C62.2971 67.7306 61.5166 77.8809 60.7619 79.9509Z" fill="url(#paint2_linear_19_304)"/>
</g>
<defs>
<linearGradient id="paint0_linear_19_304" x1="53.8781" y1="58.188" x2="69.5467" y2="62.6177" gradientUnits="userSpaceOnUse">
<stop offset="0.231" stop-color="#999875"/>
<stop offset="0.563" stop-color="#9B9977"/>
<stop offset="0.683" stop-color="#A09F7E"/>
<stop offset="0.768" stop-color="#A9A889"/>
<stop offset="0.837" stop-color="#B7B69A"/>
<stop offset="0.896" stop-color="#C9C7B0"/>
<stop offset="0.948" stop-color="#DEDDCB"/>
<stop offset="0.994" stop-color="#F8F6EB"/>
<stop offset="1" stop-color="#FBF9EF"/>
</linearGradient>
<linearGradient id="paint1_linear_19_304" x1="59.4438" y1="28.0074" x2="68.9989" y2="77.7242" gradientUnits="userSpaceOnUse">
<stop stop-color="#48A547"/>
<stop offset="1" stop-color="#3F9143"/>
</linearGradient>
<linearGradient id="paint2_linear_19_304" x1="49.6989" y1="57.1401" x2="68.2723" y2="51.9566" gradientUnits="userSpaceOnUse">
<stop stop-color="#41A247"/>
<stop offset="0.352" stop-color="#4BA74B"/>
<stop offset="0.956" stop-color="#67B554"/>
<stop offset="1" stop-color="#69B655"/>
</linearGradient>
<clipPath id="clip0_19_304">
<rect width="75" height="90" fill="white"/>
</clipPath>
</defs>
</svg>
