<svg width="75" height="90" viewBox="0 0 75 90" fill="none" xmlns="http://www.w3.org/2000/svg">
<path d="M37.4999 89.833C36.3356 89.833 35.2489 89.5029 34.2398 88.9253L23.9158 82.4054C22.3634 81.4976 23.1396 81.1675 23.6053 81.0025C25.701 80.2597 26.0891 80.0947 28.2625 78.7739C28.4957 78.6089 28.8061 78.6914 29.0387 78.8565L36.9566 83.8909C37.267 84.0559 37.6551 84.0559 37.888 83.8909L68.86 64.8267C69.1705 64.6617 69.3257 64.3316 69.3257 63.919V25.8726C69.3257 25.46 69.1705 25.1299 68.86 24.9648L37.888 5.98294C37.5775 5.81789 37.1894 5.81789 36.9566 5.98294L5.98458 24.9652C5.6741 25.1302 5.51886 25.5428 5.51886 25.8729V63.919C5.51886 64.2491 5.6741 64.6617 5.98458 64.8267L14.4458 70.0259C19.0257 72.5017 21.8973 69.6133 21.8973 66.7248V29.1737C21.8973 28.6785 22.2857 28.1834 22.8291 28.1834H26.788C27.2537 28.1834 27.7194 28.596 27.7194 29.1737V66.7245C27.7194 73.2444 24.3815 77.0406 18.5597 77.0406C16.7744 77.0406 15.3772 77.0406 11.4186 74.9774L3.26787 70.0259C1.24974 68.7877 0.0078125 66.477 0.0078125 64.0012V25.9555C0.0078125 23.4797 1.24974 21.169 3.26787 19.9308L34.2398 0.866645C36.1804 -0.288719 38.8195 -0.288719 40.76 0.866645L71.7319 19.9308C73.7501 21.1687 74.992 23.4794 74.992 25.9555V64.0015C74.992 66.4773 73.7501 68.788 71.7319 70.0259L40.76 89.0906C39.7509 89.5858 38.5866 89.8334 37.4999 89.8334V89.833ZM47.0475 63.6711C33.4634 63.6711 30.669 57.069 30.669 51.4569C30.669 50.9618 31.0571 50.4666 31.6005 50.4666H35.6367C36.1024 50.4666 36.4908 50.7967 36.4908 51.2919C37.1118 55.6657 38.8971 57.8117 47.1251 57.8117C53.6455 57.8117 56.4401 56.2437 56.4401 52.5301C56.4401 50.3841 55.6639 48.8161 45.4951 47.7429C37.0342 46.8352 31.7557 44.8545 31.7557 37.6748C31.7557 30.9895 37.0339 27.0283 45.8832 27.0283C55.8189 27.0283 60.7093 30.6594 61.3302 38.5822C61.3302 38.8298 61.2526 39.0774 61.0974 39.325C60.9421 39.49 60.7093 39.6551 60.4764 39.6551H56.4401C56.0518 39.6551 55.6639 39.325 55.586 38.9124C54.6546 34.3734 52.2484 32.888 45.8832 32.888C38.7421 32.888 37.888 35.5288 37.888 37.5094C37.888 39.903 38.8971 40.6454 48.5223 41.9658C58.0702 43.2862 62.5722 45.1846 62.5722 52.2822C62.4945 59.5448 56.9059 63.6711 47.0475 63.6711Z" fill="#539E43"/>
</svg>
