<svg width="80" height="90" viewBox="0 0 80 90" fill="none" xmlns="http://www.w3.org/2000/svg">
<path d="M65.7715 29.141C64.9202 28.772 64.0618 28.4302 63.1969 28.1159C63.3422 27.3659 63.4759 26.6249 63.5947 25.897C65.5437 13.944 64.2695 4.31441 59.9175 1.14388C55.7448 -1.8956 48.9206 1.27375 42.0287 8.85151C41.3494 9.59967 40.6853 10.3694 40.0368 11.1599C39.6027 10.6342 39.161 10.1188 38.7117 9.61375C31.4886 1.51138 24.2486 -1.90349 19.9012 1.27612C15.7323 4.32506 14.4978 13.3776 16.2525 24.7057C16.4271 25.8277 16.6242 26.9438 16.8436 28.0531C15.8188 28.421 14.8299 28.8126 13.8835 29.2294C5.41497 32.9597 0.00683594 38.8053 0.00683594 44.8689C0.00683594 51.1314 5.81271 57.4128 14.6331 61.2217C15.3482 61.5292 16.0692 61.8141 16.7955 62.0763C16.5596 63.271 16.3502 64.4738 16.1675 65.6834C14.4947 76.8149 15.801 85.6535 19.9587 88.6831C24.253 91.8118 31.4605 88.5963 38.4783 80.8456C39.0474 80.2155 39.604 79.5675 40.1474 78.9023C40.8497 79.7583 41.5707 80.5894 42.3096 81.3947C49.1078 88.7849 55.8216 91.7691 59.9753 88.7313C64.2655 85.5935 65.6599 76.0985 63.8496 64.5465C63.707 63.6415 63.5471 62.741 63.37 61.8457C63.8762 61.6563 64.373 61.4613 64.8573 61.2584C74.0269 57.4203 79.9931 51.2151 79.9931 44.8689C79.9931 38.7832 74.4103 32.8981 65.7715 29.141ZM63.7827 57.161C63.3453 57.3438 62.8966 57.5202 62.4392 57.6919C61.4269 53.6431 60.0609 49.3381 58.389 44.8898C59.9843 40.5477 61.2979 36.2976 62.2818 32.2752C63.1001 32.5744 63.894 32.8898 64.6595 33.2226C72.0613 36.442 76.5762 41.2014 76.5762 44.8689C76.5762 48.7752 71.7001 53.8464 63.7827 57.161ZM60.4977 65.3849C61.2982 70.4928 61.4122 75.1113 60.882 78.7219C60.4058 81.9663 59.4479 84.129 58.2631 84.9955C55.7426 86.8389 50.3519 84.4428 44.5382 78.1223C43.851 77.3736 43.1803 76.601 42.527 75.8052C44.781 72.6911 47.0334 69.071 49.2318 65.0502C53.0986 64.6168 56.7518 63.9078 60.0646 62.9403C60.2242 63.7508 60.3686 64.5659 60.4977 65.3849ZM27.2759 84.6769C24.8132 85.7755 22.8517 85.8071 21.6659 84.9434C19.1429 83.1051 18.094 76.0081 19.5247 66.4886C19.6948 65.3637 19.8895 64.245 20.1087 63.1338C23.385 64.0495 27.0116 64.708 30.8875 65.1051C33.1008 69.0394 35.4182 72.6556 37.7538 75.8222C37.2574 76.4289 36.7494 77.0202 36.23 77.5953C33.1265 81.0224 30.0167 83.454 27.2759 84.6769ZM15.7385 57.1369C11.8382 55.4526 8.61723 53.2638 6.40949 50.8752C4.42545 48.729 3.42406 46.5978 3.42406 44.8689C3.42406 41.1891 7.76613 36.4957 15.0083 33.3059C15.8872 32.919 16.8071 32.5539 17.7616 32.2113C18.7627 36.3244 20.0756 40.6251 21.66 44.9739C20.055 49.387 18.7233 53.7564 17.7125 57.9181C17.0496 57.6782 16.3914 57.4177 15.7385 57.1369ZM19.606 23.8764C18.1028 14.171 19.1011 6.8498 21.6134 5.0123C24.2892 3.05519 30.2063 5.84559 36.4431 12.8419C36.8498 13.2992 37.2499 13.7657 37.6432 14.2412C35.3192 17.394 33.023 20.9834 30.8294 24.8944C27.0675 25.3349 23.4666 26.0423 20.1559 26.9901C19.9519 25.9583 19.7685 24.9202 19.606 23.8768V23.8764ZM54.1085 34.6401C53.3265 32.9336 52.5155 31.2486 51.6761 29.5863C54.2281 29.994 56.6733 30.5352 58.9695 31.1968C58.2803 33.9884 57.421 36.9066 56.4096 39.8988C55.6704 38.1267 54.9032 36.3734 54.1085 34.6401ZM40.0384 17.3265C41.6144 19.4837 43.1929 21.892 44.7454 24.5052C41.5959 24.3173 38.4412 24.3165 35.2917 24.5028C36.8458 21.9137 38.4377 19.5086 40.0384 17.3265ZM25.878 34.6697C25.0933 36.3891 24.3404 38.1314 23.62 39.8952C22.6251 36.9137 21.7737 33.982 21.0785 31.151C23.3606 30.506 25.7943 29.9786 28.3301 29.5784C27.4813 31.2508 26.6637 32.9483 25.878 34.6693V34.6697ZM28.4029 60.4665C25.783 60.097 23.3128 59.5969 21.0313 58.9693C21.7375 56.0877 22.6076 53.0936 23.624 50.0482C24.3473 51.8133 25.1033 53.5567 25.8914 55.2769C26.7019 57.0453 27.5412 58.7774 28.4029 60.4665ZM40.1328 72.7152C38.513 70.5078 36.8977 68.0656 35.3201 65.439C36.8518 65.5148 38.413 65.5535 40 65.5535C41.6303 65.5535 43.2419 65.5073 44.8282 65.4181C43.2706 68.092 41.6981 70.5378 40.1328 72.7152ZM56.4418 49.8927C57.511 52.9716 58.4121 55.9499 59.1276 58.7822C56.8086 59.4509 54.3047 59.9893 51.6664 60.3891C52.5118 58.6959 53.3305 56.9817 54.1219 55.2473C54.9266 53.4844 55.7001 51.6991 56.4418 49.8927ZM51.1621 53.0905C49.9505 55.7496 48.6708 58.3582 47.325 60.9122C44.8871 61.1303 42.4439 61.2387 40 61.237C37.5107 61.237 35.0896 61.1391 32.7581 60.9481C31.3771 58.4 30.073 55.7868 28.8484 53.1142H28.8488C27.63 50.4556 26.4915 47.7396 25.4359 44.9719C26.4888 42.2036 27.6238 39.4863 28.8384 36.8257L28.8381 36.8261C30.0523 34.1649 31.346 31.5629 32.7165 29.0257C35.0952 28.7984 37.5344 28.6799 39.9996 28.6799H40C42.4764 28.6799 44.9188 28.7995 47.2968 29.0285C48.6535 31.5619 49.939 34.1549 51.1509 36.8028C52.3695 39.4575 53.5195 42.1616 54.599 44.9107C53.5306 47.688 52.3842 50.4163 51.1621 53.0905ZM58.2109 4.88362C60.8892 6.8352 61.9309 14.7051 60.248 25.0255C60.1406 25.6839 60.02 26.3545 59.8887 27.0347C56.5699 26.0668 52.9665 25.3472 49.1937 24.8999C46.9959 20.9459 44.7185 17.351 42.4324 14.2389C43.0315 13.5092 43.6449 12.7985 44.272 12.1073C50.1773 5.61506 55.6963 3.05164 58.2109 4.88362ZM40 35.8452C43.9446 35.8452 47.1425 39.8853 47.1425 44.8689C47.1425 49.8524 43.9446 53.8926 40 53.8926C36.0553 53.8926 32.8574 49.8524 32.8574 44.8689C32.8574 39.8853 36.0553 35.8452 40 35.8452Z" fill="#00D8FF"/>
</svg>
