<svg width="53" height="193" viewBox="0 0 53 193" fill="none" xmlns="http://www.w3.org/2000/svg">
<path d="M32.612 88.136C32.612 88.8827 32.484 89.5547 32.228 90.152C31.9613 90.7493 31.588 91.2187 31.108 91.56C30.628 91.9013 30.068 92.072 29.428 92.072V90.12C29.908 90.0773 30.3027 89.8907 30.612 89.56C30.9213 89.2187 31.076 88.744 31.076 88.136C31.076 87.5067 30.9267 87.016 30.628 86.664C30.3187 86.312 29.924 86.136 29.444 86.136C29.0707 86.136 28.7667 86.248 28.532 86.472C28.2973 86.6853 28.116 86.9573 27.988 87.288C27.86 87.608 27.7213 88.056 27.572 88.632C27.38 89.3573 27.188 89.9493 26.996 90.408C26.7933 90.856 26.484 91.24 26.068 91.56C25.652 91.88 25.0973 92.04 24.404 92.04C23.764 92.04 23.204 91.88 22.724 91.56C22.244 91.24 21.876 90.792 21.62 90.216C21.364 89.64 21.236 88.9733 21.236 88.216C21.236 87.1387 21.508 86.2587 22.052 85.576C22.5853 84.8827 23.3213 84.4987 24.26 84.424V86.44C23.8547 86.472 23.508 86.664 23.22 87.016C22.932 87.368 22.788 87.832 22.788 88.408C22.788 88.9307 22.9213 89.3573 23.188 89.688C23.4547 90.0187 23.8387 90.184 24.34 90.184C24.6813 90.184 24.964 90.0827 25.188 89.88C25.4013 89.6667 25.572 89.4 25.7 89.08C25.828 88.76 25.9667 88.3227 26.116 87.768C26.3187 87.032 26.5213 86.4347 26.724 85.976C26.9267 85.5067 27.2413 85.112 27.668 84.792C28.084 84.4613 28.644 84.296 29.348 84.296C29.9133 84.296 30.4467 84.4507 30.948 84.76C31.4493 85.0587 31.8547 85.5013 32.164 86.088C32.4627 86.664 32.612 87.3467 32.612 88.136ZM28.084 82.7517C27.1773 82.7517 26.3827 82.5704 25.7 82.2077C25.0067 81.8344 24.4733 81.3224 24.1 80.6717C23.7267 80.0211 23.54 79.2744 23.54 78.4317C23.54 77.3651 23.796 76.4851 24.308 75.7917C24.8093 75.0877 25.5293 74.6131 26.468 74.3677V76.3357C26.0307 76.4957 25.6893 76.7517 25.444 77.1037C25.1987 77.4557 25.076 77.8984 25.076 78.4317C25.076 79.1784 25.3427 79.7757 25.876 80.2237C26.3987 80.6611 27.1347 80.8797 28.084 80.8797C29.0333 80.8797 29.7747 80.6611 30.308 80.2237C30.8413 79.7757 31.108 79.1784 31.108 78.4317C31.108 77.3757 30.644 76.6771 29.716 76.3357V74.3677C30.612 74.6237 31.3267 75.1037 31.86 75.8077C32.3827 76.5117 32.644 77.3864 32.644 78.4317C32.644 79.2744 32.4573 80.0211 32.084 80.6717C31.7 81.3224 31.1667 81.8344 30.484 82.2077C29.7907 82.5704 28.9907 82.7517 28.084 82.7517ZM24.964 70.726C24.516 70.4593 24.1693 70.1073 23.924 69.67C23.668 69.222 23.54 68.694 23.54 68.086H25.428V68.55C25.428 69.2647 25.6093 69.8087 25.972 70.182C26.3347 70.5447 26.964 70.726 27.86 70.726H32.5V72.55H23.684V70.726H24.964ZM32.644 62.5854C32.644 63.4174 32.4573 64.1694 32.084 64.8414C31.7 65.5134 31.1667 66.0414 30.484 66.4254C29.7907 66.8094 28.9907 67.0014 28.084 67.0014C27.188 67.0014 26.3933 66.804 25.7 66.4094C25.0067 66.0147 24.4733 65.476 24.1 64.7934C23.7267 64.1107 23.54 63.348 23.54 62.5054C23.54 61.6627 23.7267 60.9 24.1 60.2174C24.4733 59.5347 25.0067 58.996 25.7 58.6014C26.3933 58.2067 27.188 58.0094 28.084 58.0094C28.98 58.0094 29.7747 58.212 30.468 58.6174C31.1613 59.0227 31.7 59.5774 32.084 60.2814C32.4573 60.9747 32.644 61.7427 32.644 62.5854ZM31.06 62.5854C31.06 62.116 30.948 61.6787 30.724 61.2734C30.5 60.8574 30.164 60.5214 29.716 60.2654C29.268 60.0094 28.724 59.8814 28.084 59.8814C27.444 59.8814 26.9053 60.004 26.468 60.2494C26.02 60.4947 25.684 60.82 25.46 61.2254C25.236 61.6307 25.124 62.068 25.124 62.5374C25.124 63.0067 25.236 63.444 25.46 63.8494C25.684 64.244 26.02 64.5587 26.468 64.7934C26.9053 65.028 27.444 65.1454 28.084 65.1454C29.0333 65.1454 29.7693 64.9054 30.292 64.4254C30.804 63.9347 31.06 63.3214 31.06 62.5854ZM20.66 54.3822H32.5V56.2062H20.66V54.3822ZM20.66 50.1635H32.5V51.9875H20.66V50.1635ZM28.052 44.2205C27.1667 44.2205 26.3827 44.0392 25.7 43.6765C25.0173 43.3032 24.4893 42.8018 24.116 42.1725C23.732 41.5325 23.54 40.8232 23.54 40.0445C23.54 39.4685 23.668 38.9032 23.924 38.3485C24.1693 37.7832 24.5 37.3352 24.916 37.0045H20.66V35.1645H32.5V37.0045H31.172C31.5987 37.3032 31.9507 37.7192 32.228 38.2525C32.5053 38.7752 32.644 39.3778 32.644 40.0605C32.644 40.8285 32.452 41.5325 32.068 42.1725C31.6733 42.8018 31.1293 43.3032 30.436 43.6765C29.732 44.0392 28.9373 44.2205 28.052 44.2205ZM28.084 37.0045C27.476 37.0045 26.948 37.1325 26.5 37.3885C26.052 37.6338 25.7107 37.9592 25.476 38.3645C25.2413 38.7698 25.124 39.2072 25.124 39.6765C25.124 40.1458 25.2413 40.5832 25.476 40.9885C25.7 41.3938 26.036 41.7245 26.484 41.9805C26.9213 42.2258 27.444 42.3485 28.052 42.3485C28.66 42.3485 29.1933 42.2258 29.652 41.9805C30.1107 41.7245 30.4627 41.3938 30.708 40.9885C30.9427 40.5725 31.06 40.1352 31.06 39.6765C31.06 39.2072 30.9427 38.7698 30.708 38.3645C30.4733 37.9592 30.132 37.6338 29.684 37.3885C29.2253 37.1325 28.692 37.0045 28.084 37.0045ZM32.644 28.9447C32.644 29.7767 32.4573 30.5287 32.084 31.2007C31.7 31.8727 31.1667 32.4007 30.484 32.7847C29.7907 33.1687 28.9907 33.3607 28.084 33.3607C27.188 33.3607 26.3933 33.1634 25.7 32.7687C25.0067 32.3741 24.4733 31.8354 24.1 31.1527C23.7267 30.4701 23.54 29.7074 23.54 28.8647C23.54 28.0221 23.7267 27.2594 24.1 26.5767C24.4733 25.8941 25.0067 25.3554 25.7 24.9607C26.3933 24.5661 27.188 24.3687 28.084 24.3687C28.98 24.3687 29.7747 24.5714 30.468 24.9767C31.1613 25.3821 31.7 25.9367 32.084 26.6407C32.4573 27.3341 32.644 28.1021 32.644 28.9447ZM31.06 28.9447C31.06 28.4754 30.948 28.0381 30.724 27.6327C30.5 27.2167 30.164 26.8807 29.716 26.6247C29.268 26.3687 28.724 26.2407 28.084 26.2407C27.444 26.2407 26.9053 26.3634 26.468 26.6087C26.02 26.8541 25.684 27.1794 25.46 27.5847C25.236 27.9901 25.124 28.4274 25.124 28.8967C25.124 29.3661 25.236 29.8034 25.46 30.2087C25.684 30.6034 26.02 30.9181 26.468 31.1527C26.9053 31.3874 27.444 31.5047 28.084 31.5047C29.0333 31.5047 29.7693 31.2647 30.292 30.7847C30.804 30.2941 31.06 29.6807 31.06 28.9447ZM23.684 10.7256L32.5 13.4616V15.3816L25.988 17.1576L32.5 18.9336V20.8536L23.684 23.6056V21.7496L30.772 19.9096L23.684 18.0376V16.1336L30.74 14.3416L23.684 12.5176V10.7256ZM23.54 4.9145C23.54 4.22117 23.684 3.6025 23.972 3.0585C24.26 2.50383 24.6867 2.07183 25.252 1.7625C25.8173 1.45317 26.5 1.2985 27.3 1.2985H32.5V3.1065H27.572C26.7827 3.1065 26.18 3.30383 25.764 3.6985C25.3373 4.09317 25.124 4.63183 25.124 5.3145C25.124 5.99717 25.3373 6.54117 25.764 6.9465C26.18 7.34117 26.7827 7.5385 27.572 7.5385H32.5V9.3625H23.684V7.5385H24.692C24.3293 7.23983 24.0467 6.86117 23.844 6.4025C23.6413 5.93317 23.54 5.43717 23.54 4.9145Z" fill="white"/>
<path d="M39 136.966C39 140.282 37.683 143.461 35.3388 145.805C32.9946 148.149 29.8152 149.466 26.5 149.466C23.1848 149.466 20.0054 148.149 17.6612 145.805C15.317 143.461 14 140.282 14 136.966L14 121.966C14 118.651 15.317 115.472 17.6612 113.128C20.0054 110.783 23.1848 109.466 26.5 109.466C29.8152 109.466 32.9946 110.783 35.3388 113.128C37.683 115.472 39 118.651 39 121.966V136.966ZM25.25 140.716C25.25 141.048 25.3817 141.366 25.6161 141.6C25.8505 141.835 26.1685 141.966 26.5 141.966C26.8315 141.966 27.1495 141.835 27.3839 141.6C27.6183 141.366 27.75 141.048 27.75 140.716V135.716C27.75 135.385 27.6183 135.067 27.3839 134.833C27.1495 134.598 26.8315 134.466 26.5 134.466C26.1685 134.466 25.8505 134.598 25.6161 134.833C25.3817 135.067 25.25 135.385 25.25 135.716V140.716Z" fill="white"/>
<path d="M26.5 165.933V169.514M26.5 187.419V191M26.5 176.676V180.257" stroke="white" stroke-width="3.33333" stroke-linecap="round" stroke-linejoin="round"/>
</svg>
